<?xml version="1.0" encoding="UTF-8" standalone="no"?>
<!-- Created with Inkscape (http://www.inkscape.org/) -->

<svg
   xmlns:dc="http://purl.org/dc/elements/1.1/"
   xmlns:cc="http://creativecommons.org/ns#"
   xmlns:rdf="http://www.w3.org/1999/02/22-rdf-syntax-ns#"
   xmlns:svg="http://www.w3.org/2000/svg"
   xmlns="http://www.w3.org/2000/svg"
   xmlns:sodipodi="http://sodipodi.sourceforge.net/DTD/sodipodi-0.dtd"
   xmlns:inkscape="http://www.inkscape.org/namespaces/inkscape"
   width="400"
   height="100"
   id="svg2"
   version="1.1"
   inkscape:version="0.48.1 r9760"
   sodipodi:docname="jszip-logo.svg">
  <defs
     id="defs4" />
  <sodipodi:namedview
     id="base"
     pagecolor="#ffffff"
     bordercolor="#666666"
     borderopacity="1.0"
     inkscape:pageopacity="0.0"
     inkscape:pageshadow="2"
     inkscape:zoom="0.58059859"
     inkscape:cx="223.91005"
     inkscape:cy="45.573511"
     inkscape:document-units="px"
     inkscape:current-layer="layer1"
     showgrid="false"
     inkscape:window-width="1107"
     inkscape:window-height="829"
     inkscape:window-x="0"
     inkscape:window-y="0"
     inkscape:window-maximized="0"
     fit-margin-top="0"
     fit-margin-left="0"
     fit-margin-right="0"
     fit-margin-bottom="0" />
  <metadata
     id="metadata7">
    <rdf:RDF>
      <cc:Work
         rdf:about="">
        <dc:format>image/svg+xml</dc:format>
        <dc:type
           rdf:resource="http://purl.org/dc/dcmitype/StillImage" />
        <dc:title></dc:title>
      </cc:Work>
    </rdf:RDF>
  </metadata>
  <g
     inkscape:label="Layer 1"
     inkscape:groupmode="layer"
     id="layer1"
     transform="translate(-146.41483,-471.7546)">
    <g
       id="g3990"
       transform="translate(10.866929,-4.4264892)">
      <g
         transform="matrix(0.25191803,0,0,0.25191803,136.87185,440.22353)"
         id="g3982">
        <path
           style="fill:none;stroke:#333333;stroke-width:12;stroke-linecap:round;stroke-linejoin:round;stroke-miterlimit:4;stroke-opacity:1;stroke-dasharray:none;marker-end:none"
           d="m 217.63915,406.78119 c -51.65469,-5.8286 -89.77338,-47.56002 -87.05892,-90.71686 1.86083,-29.58516 -23.19462,-45.58486 -19.0379,-74.53 3.47625,-24.20674 -48.265254,-39.46251 -67.627834,-57.70348 m 27.80033,-17.5581 c 33.228484,24.16193 82.477564,40.72504 80.376944,70.14047 -1.67642,23.47516 15.77678,38.78699 17.28696,62.27343 3.88136,60.36328 42.9198,48.0262 62.16058,57.615"
           id="path2996"
           inkscape:connector-curvature="0"
           sodipodi:nodetypes="cssccssc" />
        <path
           style="fill:none;stroke:#333333;stroke-width:12;stroke-linecap:round;stroke-linejoin:round;stroke-miterlimit:4;stroke-opacity:1;stroke-dasharray:none;marker-end:none"
           d="m 306.30994,494.5717 c -56.00685,-3.58063 -92.00128,-51.80294 -87.00199,-86.72159 4.56409,-31.87896 1.46959,-30.57072 12.09966,-53.74323 15.44494,-33.66845 67.02143,-41.66395 108.72192,-37.76215"
           id="path3766"
           inkscape:connector-curvature="0"
           sodipodi:nodetypes="cssc" />
        <path
           style="fill:none;stroke:#333333;stroke-width:12;stroke-linecap:round;stroke-linejoin:round;stroke-miterlimit:4;stroke-opacity:1;stroke-dasharray:none;marker-end:none"
           d="m 385.08104,310.32548 -33.97347,-1.29662 c -43.59138,23.08348 -85.16477,115.15983 -34.8358,203.83253 l 40.5135,3.21097"
           id="path3768"
           inkscape:connector-curvature="0"
           sodipodi:nodetypes="cccc" />
        <path
           style="fill:#cccccc;stroke:#333333;stroke-width:12;stroke-linecap:round;stroke-linejoin:round;stroke-miterlimit:4;stroke-opacity:1;stroke-dasharray:none;marker-end:none"
           d="m 383.91515,310.77245 c -55.45272,-2.44151 -72.3116,105.43187 -65.11129,163.93675 4.78568,38.88521 53.98344,65.07178 79.51534,9.79527 25.51463,-55.23913 46.38405,-171.05561 -14.40405,-173.73202 z"
           id="path3770"
           inkscape:connector-curvature="0"
           sodipodi:nodetypes="ssss" />
        <path
           style="fill:#ffff00;stroke:#333333;stroke-width:12;stroke-linecap:round;stroke-linejoin:round;stroke-miterlimit:4;stroke-opacity:1;stroke-dasharray:none;marker-end:none"
           d="m 351.67009,465.82919 97.48869,29.01048 c 11.34986,-8.95108 15.16102,-19.6155 6.74662,-33.05845 l -96.4767,-18.55321 c -7.72275,5.55813 -11.69513,12.55871 -7.75861,22.60118 z"
           id="path3772"
           inkscape:connector-curvature="0"
           sodipodi:nodetypes="ccccc" />
        <path
           style="fill:#ffff00;stroke:#333333;stroke-width:12;stroke-linecap:round;stroke-linejoin:round;stroke-miterlimit:4;stroke-opacity:1;stroke-dasharray:none;marker-end:none"
           d="m 363.47667,386.89371 110.30728,19.22788 c 14.67771,-9.68515 9.79234,-20.12272 1.34932,-30.69713 L 368.19931,365.30452 c -3.52466,4.39542 -6.4254,8.4814 -4.72264,21.58919 z"
           id="path3774"
           inkscape:connector-curvature="0"
           sodipodi:nodetypes="ccccc" />
      </g>
      <text
         sodipodi:linespacing="125%"
         id="text3978"
         y="538.18109"
         x="268.68823"
         style="font-size:48px;font-style:normal;font-variant:normal;font-weight:normal;font-stretch:normal;line-height:125%;letter-spacing:0px;word-spacing:0px;fill:#000000;fill-opacity:1;stroke:none;font-family:Andale Mono;-inkscape-font-specification:Andale Mono"
         xml:space="preserve"><tspan
           y="538.18109"
           x="268.68823"
           id="tspan3980"
           sodipodi:role="line">jszip.org</tspan></text>
    </g>
  </g>
</svg>
